<?xml version="1.0" encoding="UTF-8" standalone="no"?>
<svg
   xmlns:dc="http://purl.org/dc/elements/1.1/"
   xmlns:cc="http://creativecommons.org/ns#"
   xmlns:rdf="http://www.w3.org/1999/02/22-rdf-syntax-ns#"
   xmlns:svg="http://www.w3.org/2000/svg"
   xmlns="http://www.w3.org/2000/svg"
   xmlns:sodipodi="http://sodipodi.sourceforge.net/DTD/sodipodi-0.dtd"
   xmlns:inkscape="http://www.inkscape.org/namespaces/inkscape"
   viewBox="0 0 32 32"
   version="1.1"
   id="svg3"
   sodipodi:docname="facebook.svg"
   inkscape:version="0.92.4 (5da689c313, 2019-01-14)">
  <metadata
     id="metadata9">
    <rdf:RDF>
      <cc:Work
         rdf:about="">
        <dc:format>image/svg+xml</dc:format>
        <dc:type
           rdf:resource="http://purl.org/dc/dcmitype/StillImage" />
      </cc:Work>
    </rdf:RDF>
  </metadata>
  <defs
     id="defs7" />
  <sodipodi:namedview
     pagecolor="#ffffff"
     bordercolor="#666666"
     borderopacity="1"
     objecttolerance="10"
     gridtolerance="10"
     guidetolerance="10"
     inkscape:pageopacity="0"
     inkscape:pageshadow="2"
     inkscape:window-width="1920"
     inkscape:window-height="1001"
     id="namedview5"
     showgrid="false"
     inkscape:zoom="7.375"
     inkscape:cx="-14.711864"
     inkscape:cy="16"
     inkscape:window-x="-9"
     inkscape:window-y="-9"
     inkscape:window-maximized="1"
     inkscape:current-layer="svg3" />
  <path
     id="facebook"
     d="M27.99993,5.32469v21.3509a1.32468,1.32468,0,0,1-1.32457,1.32461H20.5595V18.7061h3.11971l.46705-3.6221H20.5595V12.77145c0-1.0487.2912-1.76335,1.79509-1.76335l1.918-.00088V7.76765a25.66255,25.66255,0,0,0-2.79492-.14271c-2.76537,0-4.6586,1.688-4.6586,4.78787V15.084H13.69145v3.6221H16.8191v9.2941H5.32455a1.32452,1.32452,0,0,1-1.32462-1.32461V5.32469A1.32442,1.32442,0,0,1,5.32455,4.00007H26.67536A1.32457,1.32457,0,0,1,27.99993,5.32469Z"
     fill="#262626"
     style="fill:#fffffc;fill-opacity:1" />
</svg>
