<?xml version="1.0" encoding="UTF-8" standalone="no"?>
<!-- Created with Inkscape (http://www.inkscape.org/) -->

<svg
   xmlns:dc="http://purl.org/dc/elements/1.1/"
   xmlns:cc="http://creativecommons.org/ns#"
   xmlns:rdf="http://www.w3.org/1999/02/22-rdf-syntax-ns#"
   xmlns:svg="http://www.w3.org/2000/svg"
   xmlns="http://www.w3.org/2000/svg"
   xmlns:sodipodi="http://sodipodi.sourceforge.net/DTD/sodipodi-0.dtd"
   xmlns:inkscape="http://www.inkscape.org/namespaces/inkscape"
   width="78.978149mm"
   height="26.593321mm"
   viewBox="0 0 78.97815 26.593321"
   version="1.1"
   id="svg8"
   inkscape:version="0.92.4 (5da689c313, 2019-01-14)"
   sodipodi:docname="logo.svg">
  <defs
     id="defs2" />
  <sodipodi:namedview
     id="base"
     pagecolor="#ffffff"
     bordercolor="#666666"
     borderopacity="1.0"
     inkscape:pageopacity="0.0"
     inkscape:pageshadow="2"
     inkscape:zoom="1.979899"
     inkscape:cx="-8.8038834"
     inkscape:cy="63.474479"
     inkscape:document-units="mm"
     inkscape:current-layer="layer1"
     showgrid="false"
     fit-margin-top="0"
     fit-margin-left="0"
     fit-margin-right="0"
     fit-margin-bottom="0"
     inkscape:window-width="1920"
     inkscape:window-height="1001"
     inkscape:window-x="-9"
     inkscape:window-y="-9"
     inkscape:window-maximized="1" />
  <metadata
     id="metadata5">
    <rdf:RDF>
      <cc:Work
         rdf:about="">
        <dc:format>image/svg+xml</dc:format>
        <dc:type
           rdf:resource="http://purl.org/dc/dcmitype/StillImage" />
        <dc:title></dc:title>
      </cc:Work>
    </rdf:RDF>
  </metadata>
  <g
     inkscape:label="Capa 1"
     inkscape:groupmode="layer"
     id="layer1"
     transform="translate(-24.192594,-27.729501)">
    <rect
       style="fill:#1b5e20;fill-opacity:1;stroke:#000000;stroke-width:0;stroke-miterlimit:4;stroke-dasharray:none;stroke-opacity:1"
       id="rect922"
       width="78.978149"
       height="26.593319"
       x="24.192595"
       y="27.729502"
       rx="0.32328272" />
    <g
       id="g932"
       transform="matrix(0.96961026,0,0,0.93236023,1.935269,2.775)"
       style="stroke-width:1.05174279">
      <text
         transform="scale(1.1085289,0.90209648)"
         id="text897"
         y="45.078358"
         x="33.272202"
         style="font-style:normal;font-variant:normal;font-weight:normal;font-stretch:normal;font-size:8.55925941px;line-height:1.25;font-family:Verdana;-inkscape-font-specification:Verdana;letter-spacing:0px;word-spacing:0px;fill:#aad400;fill-opacity:1;stroke:none;stroke-width:0.27827358"
         xml:space="preserve"><tspan
           style="fill:#aad400;stroke-width:0.27827358"
           y="45.078358"
           x="33.272202"
           id="tspan895"
           sodipodi:role="line">Turismo</tspan></text>
      <path
         inkscape:connector-curvature="0"
         d="m 44.703364,48.561484 c 0.06771,0.0127 0.13675,0.01971 0.203148,0.03811 0.229314,0.06352 0.448897,0.158673 0.677079,0.226147 0.653907,0.193363 1.320406,0.342056 1.98506,0.49203 2.723618,0.569315 5.490197,0.899504 8.259085,1.151872 4.025162,0.407701 8.072178,0.500202 12.114377,0.574436 0.721751,0.0024 2.88695,0.01606 2.165254,0.0069 -1.038426,-0.01323 -2.079574,0.05467 -3.115471,-0.01897 -0.723739,-0.05145 1.450962,-0.02506 2.176171,-0.0478 2.088738,-0.06548 4.17322,-0.199006 6.258174,-0.335571 2.320129,-0.165261 4.638585,-0.392935 6.931049,-0.794543 1.177623,-0.206304 1.50545,-0.296757 2.641362,-0.558303 1.554273,-0.417338 3.106803,-0.970955 4.449799,-1.878655 0.205915,-0.139174 0.398513,-0.297104 0.59777,-0.445657 0.988611,-0.793348 1.724359,-1.825082 2.146771,-3.021396 0.0951,-0.269335 0.161394,-0.547994 0.242092,-0.821991 0.368501,-1.621528 0.515064,-3.309028 0.205597,-4.95494 -0.06932,-0.368697 -0.17916,-0.728609 -0.268738,-1.092914 -0.652113,-2.044295 -1.836798,-3.842737 -3.321362,-5.379688 -0.31642,-0.327586 -0.65728,-0.630653 -0.985922,-0.945978 0,0 5.829752,-0.465217 5.829752,-0.465217 v 0 c 0.831427,0.829117 1.176475,1.129048 1.917132,2.044946 1.109337,1.371809 1.975186,2.914533 2.532782,4.590121 0.112135,0.391419 0.253746,0.775571 0.336407,1.174258 0.07365,0.355214 0.101097,0.718854 0.131051,1.080381 0.113776,1.373219 0.02516,2.755225 -0.229696,4.108061 -0.164272,0.693663 -0.21668,1.041673 -0.486614,1.697236 -0.407275,0.989124 -1.074864,1.841373 -1.861552,2.556282 -0.548717,0.43071 -0.742344,0.613566 -1.358099,0.967068 -1.260102,0.723421 -2.653834,1.189649 -4.04596,1.579674 -1.1444,0.252394 -1.632127,0.373621 -2.809433,0.574479 -2.384513,0.406816 -4.794541,0.636744 -7.20629,0.804566 -2.113036,0.134448 -4.226377,0.272074 -6.342703,0.345041 -3.171732,0.109355 -6.629735,0.07522 -9.67569,0.07805 -0.720625,7.94e-4 -1.441215,-0.0099 -2.161823,-0.0149 -4.144471,-0.08005 -8.292428,-0.196289 -12.422722,-0.567785 -2.916529,-0.267597 -5.826493,-0.623835 -8.707731,-1.155867 -1.115399,-0.21644 -2.216814,-0.490508 -3.332821,-0.700701 0,0 6.532715,-0.888728 6.532715,-0.888728 z"
         id="path914"
         style="fill:#ffffff;fill-opacity:0.97846159;stroke:none;stroke-width:0;stroke-miterlimit:4;stroke-dasharray:none;stroke-opacity:1" />
      <path
         inkscape:connector-curvature="0"
         d="m 28.502753,37.086137 c 0.06034,-0.490826 0.09258,-0.984088 0.162858,-1.473649 0.04031,-0.380482 0.141288,-0.738548 0.325853,-1.072571 0.339532,-0.558109 0.902785,-0.92175 1.445615,-1.25994 0.889468,-0.516494 1.831218,-0.935818 2.790005,-1.30478 1.299003,-0.447564 2.655567,-0.701344 4.002846,-0.955924 1.077588,-0.185639 2.146621,-0.416808 3.229084,-0.572944 0.83711,-0.117063 1.683062,-0.124312 2.525493,-0.17112 0.888772,-0.05976 1.779167,-0.0847 2.669635,-0.0999 2.538619,-0.03962 5.079079,0.0054 7.616693,0.04258 0.144925,0.0021 0.287588,0.03642 0.431567,0.05311 0.388744,0.04505 0.442751,0.04773 0.827386,0.083 0.774645,0.02737 1.540566,0.142629 2.309977,0.226454 1.001829,0.133252 1.98732,0.365718 2.973657,0.58197 0.191537,0.04185 0.384456,0.07782 0.574612,0.12556 0.434567,0.109093 0.863443,0.239943 1.297471,0.351158 0.712349,0.182531 1.428065,0.348546 2.144694,0.513228 1.268169,0.327258 2.563969,0.520428 3.845862,0.782492 0.999035,0.213143 2.001271,0.410951 3.002883,0.611957 1.048583,0.195639 2.096868,0.394624 3.148483,0.573461 1.073521,0.186026 2.151222,0.342411 3.222101,0.544899 1.073132,0.178191 2.13985,0.390239 3.215506,0.553278 0.718452,0.106103 1.443397,0.146232 2.168792,0.155202 0.23142,0.0013 0.462838,-5.29e-4 0.694243,-0.0033 0.06354,-7.94e-4 0.254169,-0.0024 0.190621,-0.0024 -5.851133,-0.0029 -8.445838,0.0084 -6.171461,-0.0013 0.274465,-0.0019 0.548928,-0.0036 0.823399,-0.0045 0.176942,-5.29e-4 0.08847,-2.41e-4 0.265422,-5.29e-4 0,0 6.520516,1.032319 6.520516,1.032319 v 0 c -0.176996,-5e-5 -0.08848,-2.3e-5 -0.26556,-7.9e-5 -0.279146,-8.2e-5 -0.558297,-2.22e-4 -0.837443,7.94e-4 -2.555148,0.009 -5.112843,0.07909 -7.666355,-0.02577 -0.684303,-0.04662 -1.364837,-0.132098 -2.039829,-0.254981 C 72.893094,35.926477 71.84006,35.732346 70.786203,35.542574 69.696025,35.353834 68.598004,35.215922 67.511654,35.005189 66.455408,34.802505 65.395556,34.620025 64.338421,34.422074 63.358915,34.223142 62.383,34.006417 61.405304,33.798793 60.149128,33.541425 58.885285,33.318891 57.645466,32.986784 56.276448,32.660492 54.913929,32.304778 53.534725,32.023267 52.526739,31.817783 51.516499,31.61039 50.490712,31.515698 49.714348,31.431256 48.936139,31.372016 48.15887,31.29789 c -0.168277,-0.01841 -0.647858,-0.07158 -0.809733,-0.0865 -0.141235,-0.01302 -0.56597,-0.03291 -0.42414,-0.03402 10.409367,-0.08158 7.277848,-0.0046 5.061674,-0.0072 -0.881723,0.0073 -1.763897,0.01802 -2.644237,0.07212 -0.270121,0.01831 -0.539629,0.04651 -0.810088,0.05884 -0.581906,0.02654 -1.166734,0.0053 -1.747092,0.06954 -1.1309,0.110559 -2.239814,0.343051 -3.36238,0.513895 -1.300975,0.235069 -2.609549,0.453962 -3.869156,0.867061 -0.938458,0.323472 -1.860055,0.696807 -2.727349,1.183526 -0.453413,0.271595 -0.870529,0.585079 -1.268126,0.932974 -0.06193,0.115342 -0.153144,0.235162 -0.204597,0.355171 -0.06811,0.158862 -0.09981,0.338006 -0.139327,0.504786 -0.09602,0.445219 -0.167294,0.902364 -0.106924,1.358167 0,0 -6.604642,0 -6.604642,0 z"
         id="path916"
         style="fill:#ffffff;fill-opacity:0.98039216;stroke:none;stroke-width:0;stroke-miterlimit:4;stroke-dasharray:none;stroke-opacity:1" />
      <text
         transform="scale(1.1165646,0.89560426)"
         id="text920"
         y="55.114368"
         x="45.867214"
         style="font-style:normal;font-variant:normal;font-weight:normal;font-stretch:normal;font-size:12.23076725px;line-height:1.25;font-family:Verdana;-inkscape-font-specification:Verdana;letter-spacing:0px;word-spacing:0px;fill:#aad400;fill-opacity:1;stroke:none;stroke-width:0.27827358"
         xml:space="preserve"><tspan
           style="font-style:normal;font-variant:normal;font-weight:normal;font-stretch:normal;font-family:'Bauhaus 93';-inkscape-font-specification:'Bauhaus 93, ';fill:#aad400;stroke-width:0.27827358"
           y="55.114368"
           x="45.867214"
           id="tspan918"
           sodipodi:role="line">SELVA</tspan></text>
    </g>
    <rect
       style="fill:none;fill-opacity:1;stroke:#ffffff;stroke-width:0.80000001;stroke-linejoin:round;stroke-miterlimit:4;stroke-dasharray:none;stroke-opacity:1"
       id="rect924"
       width="75.770912"
       height="23.920624"
       x="25.796213"
       y="29.065849"
       rx="0.31015426" />
  </g>
</svg>
