<?xml version="1.0" encoding="UTF-8" standalone="no"?>
<svg
   xmlns:dc="http://purl.org/dc/elements/1.1/"
   xmlns:cc="http://creativecommons.org/ns#"
   xmlns:rdf="http://www.w3.org/1999/02/22-rdf-syntax-ns#"
   xmlns:svg="http://www.w3.org/2000/svg"
   xmlns="http://www.w3.org/2000/svg"
   xmlns:sodipodi="http://sodipodi.sourceforge.net/DTD/sodipodi-0.dtd"
   xmlns:inkscape="http://www.inkscape.org/namespaces/inkscape"
   viewBox="0 0 32 32"
   version="1.1"
   id="svg3"
   sodipodi:docname="twitter.svg"
   inkscape:version="0.92.4 (5da689c313, 2019-01-14)">
  <metadata
     id="metadata9">
    <rdf:RDF>
      <cc:Work
         rdf:about="">
        <dc:format>image/svg+xml</dc:format>
        <dc:type
           rdf:resource="http://purl.org/dc/dcmitype/StillImage" />
      </cc:Work>
    </rdf:RDF>
  </metadata>
  <defs
     id="defs7" />
  <sodipodi:namedview
     pagecolor="#ffffff"
     bordercolor="#666666"
     borderopacity="1"
     objecttolerance="10"
     gridtolerance="10"
     guidetolerance="10"
     inkscape:pageopacity="0"
     inkscape:pageshadow="2"
     inkscape:window-width="1920"
     inkscape:window-height="1001"
     id="namedview5"
     showgrid="false"
     inkscape:zoom="7.375"
     inkscape:cx="-14.711864"
     inkscape:cy="16"
     inkscape:window-x="-9"
     inkscape:window-y="-9"
     inkscape:window-maximized="1"
     inkscape:current-layer="svg3" />
  <path
     id="twitter"
     d="M26.32865,10.20428c.01043.22891.01043.45778.01043.6867A15.18194,15.18194,0,0,1,2.99214,23.68808a10.26487,10.26487,0,0,0,1.26929.07283A10.70029,10.70029,0,0,0,10.8889,21.472a5.33486,5.33486,0,0,1-4.9836-3.70387,5.36636,5.36636,0,0,0,2.40336-.09364,5.34632,5.34632,0,0,1-4.2761-5.23331v-.07283a5.39627,5.39627,0,0,0,2.41374.6659A5.35659,5.35659,0,0,1,4.79205,5.90738,15.1498,15.1498,0,0,0,15.78924,11.484a5.89821,5.89821,0,0,1-.13524-1.21727,5.33642,5.33642,0,0,1,9.22847-3.65189,10.61188,10.61188,0,0,0,3.3918-1.2901A5.368,5.368,0,0,1,25.9229,8.27951a10.81127,10.81127,0,0,0,3.06924-.84274A10.868,10.868,0,0,1,26.32865,10.20428Z"
     fill="#262626"
     style="fill:#fffffc;fill-opacity:1" />
</svg>
